<svg xmlns="http://www.w3.org/2000/svg" viewBox="-0.5 -0.5 24 24" id="Interface-Essential-Heart-Favorite--Streamline-Pixel" height="24" width="24"><desc>Interface Essential Heart Favorite Streamline Icon: https://streamlinehq.com</desc><title>interface-essential-heart-favorite</title><g><path d="M21.9003125 6.023125H23V11.5h-1.0996875Z" fill="#000000" stroke-width="1"></path><path d="M20.8078125 11.5h1.0925v2.1921874999999997h-1.0925Z" fill="#000000" stroke-width="1"></path><path d="M20.8078125 4.930625h1.0925v1.0925h-1.0925Z" fill="#000000" stroke-width="1"></path><path d="M19.7153125 13.692187500000001h1.0925v1.0925h-1.0925Z" fill="#000000" stroke-width="1"></path><path d="M19.7153125 7.1156250000000005h1.0925v2.1921874999999997h-1.0925Z" fill="#000000" stroke-width="1"></path><path d="M19.7153125 3.8309375h1.0925v1.0996875h-1.0925Z" fill="#000000" stroke-width="1"></path><path d="M18.615624999999998 6.023125h1.0996875V7.1156250000000005H18.615624999999998Z" fill="#000000" stroke-width="1"></path><path d="M17.523125 14.7846875h2.1921874999999997v1.0925h-2.1921874999999997Z" fill="#000000" stroke-width="1"></path><path d="M16.423437500000002 4.930625h2.1921874999999997v1.0925h-2.1921874999999997Z" fill="#000000" stroke-width="1"></path><path d="M15.3309375 15.8771875h2.1921874999999997v1.0996875h-2.1921874999999997Z" fill="#000000" stroke-width="1"></path><path d="M14.2384375 2.7384375h5.476875v1.0925h-5.476875Z" fill="#000000" stroke-width="1"></path><path d="M13.138750000000002 16.976875h2.1921874999999997v1.0925h-2.1921874999999997Z" fill="#000000" stroke-width="1"></path><path d="M13.138750000000002 3.8309375h1.0996875v1.0996875h-1.0996875Z" fill="#000000" stroke-width="1"></path><path d="M12.04625 18.069375h1.0925v1.0925h-1.0925Z" fill="#000000" stroke-width="1"></path><path d="M12.04625 4.930625h1.0925v1.0925h-1.0925Z" fill="#000000" stroke-width="1"></path><path d="M10.95375 19.161875h1.0925v1.0996875h-1.0925Z" fill="#000000" stroke-width="1"></path><path d="M10.95375 6.023125h1.0925V7.1156250000000005h-1.0925Z" fill="#000000" stroke-width="1"></path><path d="M9.854062500000001 18.069375h1.0996875v1.0925h-1.0996875Z" fill="#000000" stroke-width="1"></path><path d="M9.854062500000001 4.930625h1.0996875v1.0925h-1.0996875Z" fill="#000000" stroke-width="1"></path><path d="M7.661875 16.976875h2.1921874999999997v1.0925h-2.1921874999999997Z" fill="#000000" stroke-width="1"></path><path d="M8.7615625 3.8309375h1.0925v1.0996875h-1.0925Z" fill="#000000" stroke-width="1"></path><path d="M5.476875 15.8771875h2.185v1.0996875H5.476875Z" fill="#000000" stroke-width="1"></path><path d="M3.2846875000000004 14.7846875h2.1921874999999997v1.0925H3.2846875000000004Z" fill="#000000" stroke-width="1"></path><path d="M3.2846875000000004 2.7384375h5.476875v1.0925H3.2846875000000004Z" fill="#000000" stroke-width="1"></path><path d="M2.1921874999999997 13.692187500000001h1.0925v1.0925H2.1921874999999997Z" fill="#000000" stroke-width="1"></path><path d="M2.1921874999999997 3.8309375h1.0925v1.0996875H2.1921874999999997Z" fill="#000000" stroke-width="1"></path><path d="M1.0925 11.5h1.0996875v2.1921874999999997H1.0925Z" fill="#000000" stroke-width="1"></path><path d="M1.0925 4.930625h1.0996875v1.0925H1.0925Z" fill="#000000" stroke-width="1"></path><path d="M0 6.023125h1.0925V11.5H0Z" fill="#000000" stroke-width="1"></path></g></svg>