<svg xmlns="http://www.w3.org/2000/svg" fill="none" viewBox="0 0 14 14" id="Star-Square--Streamline-Core-Gradient" height="14" width="14" stroke-width="1"><desc>Star Square Streamline Icon: https://streamlinehq.com</desc><g id="Interface Essential/Bookmark Favorite/star-square--reward-social-rating-media-rate-it-star"><path id="Subtract" fill="url(#paint0_linear_13603_8023)" fill-rule="evenodd" d="M.5 2C.5 1.17157 1.17157.5 2 .5h10c.8284 0 1.5.67157 1.5 1.5v10c0 .8284-.6716 1.5-1.5 1.5H2c-.82843 0-1.5-.6716-1.5-1.5V2Zm7.70586 3.18253-.92193-1.85458c-.02667-.05151-.06722-.09454-.11706-.12421-.04985-.02967-.107-.0448-.16499-.04368-.058.00111-.11453.01843-.16319.05-.04867.03156-.08754.07611-.1122.12861l-.92193 1.85458c-.02062.0469-.05331.0875-.09475.11763-.04143.03014-.09012.04873-.1411.05389l-2.04754.30016c-.05633.00913-.10907.03359-.15243.0707-.04335.03711-.07566.08544-.09337.13969-.01772.05425-.02016.11233-.00706.16787.01311.05555.04125.10642.08134.14703l1.51154 1.44721c.03123.03844.05247.084.06182.13263.00935.04863.00653.09882-.00822.1461l-.34305 2.03682c-.01235.05892-.00735.12002.01439.17612.02173.0561.05927.1047.10807.1399.0488.0352.10675.0554.16683.0583.06009.0029.11972-.0117.17168-.042l1.82242-.96481c.04716-.02131.09832-.03233.15008-.03233.05175 0 .10292.01102.15008.03233l1.82242.96481c.05195.0303.11159.0449.17167.042.06009-.0029.11804-.0231.16684-.0583.04879-.0352.08633-.0838.10807-.1399.02174-.0561.02673-.1172.01438-.17612l-.28944-2.03682c-.02254-.043-.03431-.09082-.03431-.13936 0-.04855.01177-.09637.03431-.13937l1.51157-1.43649c.0432-.04019.0741-.09185.0891-.14896.0149-.05711.0133-.11729-.0047-.17351-.018-.05622-.0516-.10616-.0969-.14398-.0454-.03781-.1005-.06194-.1591-.06956l-2.0475-.31088c-.05097-.00516-.09966-.02375-.1411-.05389-.04143-.03013-.07413-.07073-.09474-.11763Z" clip-rule="evenodd"></path></g><defs><linearGradient id="paint0_linear_13603_8023" x1="13.456" x2="-1.939" y1="13.503" y2="4.843" gradientUnits="userSpaceOnUse"><stop stop-color="#ff44f8"></stop><stop offset="1" stop-color="#1b4dff"></stop></linearGradient></defs></svg>