<svg xmlns="http://www.w3.org/2000/svg" fill="none" viewBox="0 0 14 14" id="Dial-Pad-Center-Middle--Streamline-Core-Gradient" height="14" width="14" stroke-width="1"><desc>Dial Pad Center Middle Streamline Icon: https://streamlinehq.com</desc><g id="Interface Essential/Login Logout/dial-pad-center-middle--dial-pad-center-middle"><path id="Union" fill="url(#paint0_linear_13603_4264)" fill-rule="evenodd" d="M2.375 1.75c-.34518 0-.625.27982-.625.625S2.02982 3 2.375 3 3 2.72018 3 2.375s-.27982-.625-.625-.625ZM.5 2.375C.5 1.33947 1.33947.5 2.375.5s1.875.83947 1.875 1.875S3.41053 4.25 2.375 4.25.5 3.41053.5 2.375Zm11.125-.625c-.3452 0-.625.27982-.625.625s.2798.625.625.625.625-.27982.625-.625-.2798-.625-.625-.625Zm-1.875.625C9.75 1.33947 10.5895.5 11.625.5c1.0355 0 1.875.83947 1.875 1.875s-.8395 1.875-1.875 1.875c-1.0355 0-1.875-.83947-1.875-1.875ZM11 7c0-.34518.2798-.625.625-.625s.625.27982.625.625-.2798.625-.625.625S11 7.34518 11 7Zm.625-1.875c-1.0355 0-1.875.83947-1.875 1.875s.8395 1.875 1.875 1.875c1.0355 0 1.875-.83947 1.875-1.875s-.8395-1.875-1.875-1.875Zm0 5.875c-.3452 0-.625.2798-.625.625s.2798.625.625.625.625-.2798.625-.625-.2798-.625-.625-.625Zm-1.875.625c0-1.0355.8395-1.875 1.875-1.875 1.0355 0 1.875.8395 1.875 1.875 0 1.0355-.8395 1.875-1.875 1.875-1.0355 0-1.875-.8395-1.875-1.875Zm-3.375-9.25c0-.34518.27982-.625.625-.625s.625.27982.625.625S7.34518 3 7 3s-.625-.27982-.625-.625ZM7 .5c-1.03553 0-1.875.83947-1.875 1.875S5.96447 4.25 7 4.25s1.875-.83947 1.875-1.875S8.03553.5 7 .5ZM7 11c-.34518 0-.625.2798-.625.625s.27982.625.625.625.625-.2798.625-.625S7.34518 11 7 11Zm-1.875.625c0-1.0355.83947-1.875 1.875-1.875s1.875.8395 1.875 1.875c0 1.0355-.83947 1.875-1.875 1.875s-1.875-.8395-1.875-1.875ZM1.75 7c0-.34518.27982-.625.625-.625S3 6.65482 3 7s-.27982.625-.625.625S1.75 7.34518 1.75 7Zm.625-1.875C1.33947 5.125.5 5.96447.5 7s.83947 1.875 1.875 1.875S4.25 8.03553 4.25 7s-.83947-1.875-1.875-1.875Zm4.625 0c-1.03553 0-1.875.83947-1.875 1.875S5.96447 8.875 7 8.875 8.875 8.03553 8.875 7 8.03553 5.125 7 5.125Zm-5.25 6.5c0-.3452.27982-.625.625-.625s.625.2798.625.625-.27982.625-.625.625-.625-.2798-.625-.625Zm.625-1.875C1.33947 9.75.5 10.5895.5 11.625c0 1.0355.83947 1.875 1.875 1.875s1.875-.8395 1.875-1.875c0-1.0355-.83947-1.875-1.875-1.875Z" clip-rule="evenodd"></path></g><defs><linearGradient id="paint0_linear_13603_4264" x1="1" x2="15.816" y1="1.551" y2="9.901" gradientUnits="userSpaceOnUse"><stop stop-color="#00f6e7"></stop><stop offset="1" stop-color="#6d1fec"></stop></linearGradient></defs></svg>