<svg xmlns="http://www.w3.org/2000/svg" fill="none" viewBox="0 0 14 14" id="New-Badge-Highlight--Streamline-Core-Gradient" height="14" width="14" stroke-width="1"><desc>New Badge Highlight Streamline Icon: https://streamlinehq.com</desc><g id="Interface Essential/Content/new-badge-highlight"><path id="Union" fill="url(#paint0_linear_13603_11237)" d="M7.8684.692239C7.48454.0202298 6.5156.0202304 6.13174.69224l-.91197 1.59658-1.72487-.63685c-.72601-.26805-1.46827.35478-1.33036 1.1163l.32765 1.80926-1.730684.62087c-.7284565.26133-.896711 1.21556-.301567 1.71027L1.8739 8.08404.947209 9.67212c-.39005.66848.094421 1.50758.868331 1.50398l1.83866-.0085.31091 1.8122c.13087.7628 1.04138 1.0942 1.63192.594l1.40304-1.1884 1.40304 1.1884c.59055.5002 1.50105.1688 1.63189-.594l.3109-1.8122 1.8387.0085c.7739.0036 1.2584-.8355.8683-1.50398l-.9267-1.58808 1.414-1.17537c.5951-.49471.4269-1.44893-.3016-1.71027l-1.7306-.62087.3276-1.80926c.1379-.76152-.6043-1.38435-1.3304-1.1163l-1.72483.63685L7.8684.692239Z"></path></g><defs><linearGradient id="paint0_linear_13603_11237" x1="2.355" x2="13.434" y1="2.808" y2="9.027" gradientUnits="userSpaceOnUse"><stop stop-color="#ffc700"></stop><stop offset="1" stop-color="#02be6f"></stop></linearGradient></defs></svg>