<svg xmlns="http://www.w3.org/2000/svg" fill="none" viewBox="0 0 14 14" id="Warranty-Badge-Highlight--Streamline-Core-Gradient" height="14" width="14" stroke-width="1"><desc>Warranty Badge Highlight Streamline Icon: https://streamlinehq.com</desc><g id="Interface Essential/Content/warranty-badge-highlight"><path id="Subtract" fill="url(#paint0_linear_13603_11267)" fill-rule="evenodd" d="M6.2799.401832c.39332-.40824299 1.04699-.40824299 1.4403 0l.81982.850928L9.67547.925743c.54473-.156891 1.11083.169947 1.24733.720147l.2845 1.14684 1.1469.28452c.5502.1365.877.70259.7201 1.24733l-.327 1.13545.8509.81982c.4083.39331.4083 1.04699 0 1.4403l-.8509.81982.327 1.13545c.1569.54478-.1699 1.11088-.7201 1.24738l-1.1469.2845-.2845 1.1468c-.1365.5502-.7026.877-1.24733.7202l-1.13545-.3271-.81982.851c-.39331.4082-1.04698.4082-1.4403 0l-.81981-.851-1.13545.3271c-.54474.1568-1.11084-.17-1.24734-.7202l-.28452-1.1468-1.14683-.2845c-.55021-.1365-.877044-.7026-.720153-1.24738l.327023-1.13545-.850935-.81982c-.40824252-.39332-.40824264-1.04699 0-1.4403l.850935-.81982-.327023-1.13545c-.156891-.54474.169943-1.11083.720153-1.24733l1.14683-.28452.28452-1.14684c.1365-.5502.7026-.877037 1.24734-.720146l1.13545.327016.81981-.850928Zm3.7737 5.191738c.2587-.32344.2063-.79541-.11716-1.05417-.32344-.25876-.79541-.20631-1.05417.11713L5.93638 8.3389l-1.11846-.83885c-.33137-.24852-.80147-.18137-1.05.15-.24853.33137-.18137.80147.15 1.05l1.7 1.275c.32407.24305.78259.18485 1.03565-.13148l3.40003-4.25Z" clip-rule="evenodd"></path></g><defs><linearGradient id="paint0_linear_13603_11267" x1="15.101" x2="-3.525" y1="16.829" y2="3.598" gradientUnits="userSpaceOnUse"><stop stop-color="#ff9a23"></stop><stop offset="1" stop-color="#ff0843"></stop></linearGradient></defs></svg>